<?xml version="1.0" standalone="no"?>
<!DOCTYPE svg PUBLIC "-//W3C//DTD SVG 20010904//EN"
 "http://www.w3.org/TR/2001/REC-SVG-20010904/DTD/svg10.dtd">
<svg version="1.0" xmlns="http://www.w3.org/2000/svg"
 width="449.000000pt" height="417.000000pt" viewBox="0 0 449.000000 417.000000"
 preserveAspectRatio="xMidYMid meet">

<g transform="translate(0.000000,417.000000) scale(0.100000,-0.100000)"
fill="#000000" stroke="none">
<path d="M2240 4105 c-7 -8 -10 -22 -6 -30 4 -13 9 -13 25 -4 15 10 23 9 46
-9 35 -28 60 -28 79 0 19 27 5 48 -18 29 -13 -11 -20 -9 -42 8 -31 25 -66 27
-84 6z"/>
<path d="M1864 4062 c-61 -29 -88 -73 -92 -152 -3 -55 0 -70 20 -100 13 -19
42 -44 65 -55 24 -11 42 -27 43 -36 0 -9 7 -19 15 -23 24 -9 17 -26 -10 -26
-16 0 -25 -6 -25 -15 0 -21 64 -20 84 1 19 18 19 20 6 45 -6 10 -18 19 -26 19
-8 0 -12 5 -9 10 3 6 17 10 30 10 40 0 55 11 55 41 0 28 -1 28 -48 22 -94 -11
-149 51 -123 138 19 62 77 87 154 66 25 -7 27 -5 27 22 0 37 -7 41 -73 47 -38
4 -63 0 -93 -14z"/>
<path d="M1498 4043 c-21 -5 -22 -6 -52 -186 -30 -172 -30 -168 -13 -163 6 3
24 7 40 10 23 5 27 11 27 41 0 18 3 36 8 38 4 3 32 8 63 12 55 7 56 7 69 -24
9 -24 19 -31 39 -31 60 1 58 10 -30 164 -88 154 -89 155 -151 139z m92 -186
c-3 -2 -22 -7 -43 -11 l-39 -7 7 43 c16 109 14 107 48 40 17 -34 29 -63 27
-65z"/>
<path d="M2154 3892 c-55 -75 -100 -139 -102 -142 -1 -4 13 -11 32 -17 33 -10
37 -9 59 20 l24 31 56 -13 c56 -14 56 -14 59 -55 3 -36 6 -41 36 -50 18 -5 34
-7 37 -5 2 3 -1 81 -8 174 l-12 169 -41 12 -42 12 -98 -136z m126 -11 l0 -69
-40 10 c-22 6 -40 13 -40 17 0 9 69 111 75 111 3 0 5 -31 5 -69z"/>
<path d="M1203 3964 c-52 -19 -110 -81 -119 -129 -15 -82 56 -203 122 -207 54
-2 88 4 124 23 62 32 61 32 49 68 l-11 32 -23 -21 c-30 -29 -86 -43 -119 -30
-35 13 -66 66 -66 113 0 50 40 92 97 101 40 7 41 8 30 37 -13 32 -23 34 -84
13z"/>
<path d="M2550 3879 c-73 -29 -131 -137 -110 -208 14 -51 36 -79 80 -101 100
-51 206 0 240 117 24 79 -8 150 -84 184 -45 20 -88 23 -126 8z m110 -69 c49
-26 38 -120 -20 -172 -35 -32 -49 -34 -90 -13 -52 27 -52 109 -1 164 30 33 74
41 111 21z"/>
<path d="M901 3810 c-24 -16 -45 -31 -48 -34 -10 -9 19 -47 32 -42 20 7 126
-160 119 -189 -3 -13 1 -27 10 -34 13 -11 24 -8 65 19 46 29 49 33 39 56 -7
15 -17 22 -27 19 -21 -6 -134 168 -119 183 6 6 5 17 -4 31 -16 26 -13 26 -67
-9z"/>
<path d="M737 3696 l-27 -22 77 -89 c43 -49 71 -86 63 -83 -62 23 -244 68
-259 63 -10 -3 -26 -14 -35 -24 -16 -18 -12 -24 89 -140 58 -67 109 -121 114
-121 4 0 16 9 26 20 20 22 20 23 -73 129 -30 34 -49 61 -42 61 6 0 66 -16 132
-35 l121 -35 28 25 29 24 -108 124 -108 124 -27 -21z"/>
<path d="M1670 3609 c-573 -74 -1039 -525 -1135 -1097 -24 -143 -17 -379 14
-510 19 -76 26 -92 39 -88 31 9 223 26 299 26 l75 0 46 52 c521 586 1053 1105
1395 1361 l108 81 -38 23 c-55 33 -190 88 -275 112 -162 46 -366 61 -528 40z"/>
<path d="M2870 3555 c-245 -85 -591 -351 -1068 -820 -232 -227 -487 -495 -698
-732 l-109 -122 -70 -1 c-97 0 -287 -19 -366 -35 -158 -33 -223 -75 -360 -227
-129 -145 -151 -187 -114 -218 23 -19 123 -12 220 15 326 91 346 95 508 95
240 0 438 -26 1027 -136 204 -38 341 -58 415 -61 106 -5 112 -4 163 24 29 15
123 86 209 157 l157 130 -130 18 c-71 11 -307 55 -525 99 -403 81 -600 113
-769 125 -150 11 -149 2 -18 145 329 357 822 841 1048 1029 242 201 352 262
374 205 8 -21 -75 -137 -234 -330 -224 -270 -323 -430 -336 -542 -12 -94 27
-115 140 -73 98 37 314 186 394 273 l23 25 -31 24 -32 25 84 114 c298 402 425
664 367 756 -38 63 -152 78 -269 38z"/>
<path d="M407 3361 l-17 -29 99 -65 c109 -72 125 -94 94 -136 -32 -42 -56 -38
-152 23 -114 72 -113 72 -133 36 l-17 -29 52 -32 c145 -91 162 -99 198 -99 96
0 166 140 108 214 -18 24 -171 130 -204 142 -6 3 -18 -9 -28 -25z"/>
<path d="M2575 3108 c-212 -168 -324 -268 -579 -518 -216 -212 -640 -650 -634
-655 2 -2 80 -13 173 -25 94 -11 359 -58 590 -105 435 -87 569 -109 718 -121
48 -4 86 -10 85 -15 -3 -9 -310 -266 -396 -332 -75 -58 -111 -76 -178 -88 -74
-14 -155 -3 -588 76 -478 86 -752 125 -894 125 l-43 0 33 -41 c18 -23 69 -72
113 -109 197 -166 405 -264 654 -305 148 -25 377 -17 519 19 469 118 826 464
966 935 15 51 15 53 -3 40 -206 -152 -280 -188 -401 -196 -122 -9 -204 29
-241 111 -25 56 -25 166 1 223 50 112 262 259 438 304 89 23 141 24 187 5 47
-20 60 -49 45 -99 -25 -85 -168 -178 -385 -250 -91 -31 -100 -36 -103 -60 -4
-36 43 -83 90 -92 71 -13 185 25 334 112 l61 36 13 68 c21 110 1 393 -35 487
-3 9 -20 4 -61 -18 -31 -16 -67 -30 -80 -30 -22 0 -54 23 -54 40 0 11 64 97
106 140 l34 36 -35 73 c-20 41 -39 70 -44 65 -17 -20 -201 -283 -201 -288 0
-2 16 -14 35 -26 19 -12 35 -25 35 -29 0 -13 -184 -171 -272 -233 -100 -72
-220 -133 -292 -148 -155 -32 -203 106 -108 305 54 111 134 227 278 400 159
192 177 215 167 215 -4 -1 -26 -15 -48 -32z"/>
<path d="M192 2981 c-7 -21 -12 -43 -12 -49 0 -6 43 -44 95 -84 l95 -73 -124
-3 -124 -3 -16 -46 c-9 -26 -13 -49 -11 -52 3 -3 73 -29 155 -57 l149 -52 10
31 c6 17 10 31 9 32 -2 1 -57 21 -123 43 l-120 40 137 1 136 1 10 29 c10 29 8
31 -95 110 -59 45 -104 81 -102 81 3 0 57 -18 121 -39 l117 -39 10 31 c6 16 9
32 7 35 -8 7 -286 102 -300 102 -7 0 -18 -17 -24 -39z"/>
<path d="M3133 2854 c-62 -31 -66 -42 -40 -115 12 -35 23 -66 24 -68 4 -7 128
79 166 115 39 39 44 53 25 72 -18 18 -137 15 -175 -4z"/>
<path d="M3705 2821 c-218 -101 -521 -504 -555 -738 -34 -229 101 -343 293
-250 48 24 112 70 214 153 l31 25 22 -48 c28 -63 54 -91 115 -119 90 -43 190
-23 303 60 49 36 67 44 119 48 85 8 187 61 191 101 l3 28 -50 -25 c-51 -26
-105 -34 -116 -17 -3 5 8 31 24 57 40 61 63 134 59 181 -3 36 -8 42 -66 70 -2
0 2 10 10 22 19 32 -7 52 -78 58 -169 15 -426 -133 -512 -295 -29 -54 -43 -67
-129 -123 -81 -52 -106 -63 -150 -67 -49 -4 -55 -2 -88 31 -31 31 -35 41 -35
89 0 30 6 61 13 69 6 9 49 46 94 83 106 87 237 226 298 318 69 103 97 175 93
246 -3 55 -4 57 -33 60 -16 1 -48 -6 -70 -17z m-15 -168 c0 -35 -39 -101 -120
-203 -60 -76 -197 -206 -207 -196 -10 9 58 150 111 230 61 91 166 196 197 196
14 0 19 -7 19 -27z m506 -350 c-2 -5 -25 -38 -50 -76 -51 -75 -61 -115 -52
-188 l7 -50 -58 -26 c-73 -32 -121 -39 -167 -23 -46 15 -52 40 -31 113 22 76
83 130 228 201 110 55 133 63 123 49z"/>
<path d="M174 2501 c-75 -19 -114 -71 -114 -152 0 -100 66 -164 170 -164 101
0 164 62 164 160 0 90 -54 147 -150 159 -21 3 -53 1 -70 -3z m115 -86 c33 -16
41 -33 41 -81 0 -28 -6 -38 -33 -55 -43 -27 -117 -22 -152 11 -41 39 -32 100
20 128 29 16 91 14 124 -3z"/>
<path d="M2930 2340 c-41 -11 -122 -56 -163 -88 -45 -36 -97 -99 -97 -118 0
-32 182 59 252 127 62 58 65 95 8 79z"/>
<path d="M348 2133 l-26 -4 20 -46 c26 -58 16 -98 -31 -130 -83 -56 -171 -6
-171 97 0 36 -3 40 -25 40 -35 0 -45 -26 -34 -85 17 -93 78 -145 168 -145 69
0 117 23 149 70 21 30 23 44 19 95 -4 57 -23 117 -36 114 -3 -1 -18 -4 -33 -6z"/>
<path d="M852 1002 l-43 -167 28 -23 c15 -12 35 -21 44 -19 8 2 75 51 147 107
l133 104 -30 19 c-17 10 -35 17 -40 15 -5 -1 -52 -40 -105 -86 -53 -45 -96
-79 -96 -75 0 3 16 59 35 124 19 65 35 123 35 129 0 7 -50 40 -62 40 -2 0 -22
-75 -46 -168z"/>
<path d="M2622 1072 l-23 -18 97 -134 c53 -74 98 -136 98 -137 1 -1 39 24 84
56 l82 59 -19 23 -19 24 -45 -33 c-25 -17 -49 -32 -54 -32 -4 0 -42 48 -83
105 -41 58 -79 105 -85 105 -5 0 -20 -8 -33 -18z"/>
<path d="M1241 939 c-6 -17 -5 -26 4 -32 20 -11 -63 -207 -87 -207 -10 0 -18
-4 -18 -9 0 -5 -2 -16 -6 -24 -3 -10 11 -21 50 -37 30 -12 59 -19 64 -16 13 8
22 46 11 46 -16 0 -10 22 28 117 26 64 43 93 54 93 16 0 29 19 29 41 0 9 -55
35 -97 45 -18 5 -25 1 -32 -17z"/>
<path d="M2354 940 l-41 -18 5 -173 c2 -96 5 -175 7 -177 1 -1 16 3 33 9 29
10 32 15 32 53 l0 43 56 19 56 19 25 -29 c23 -28 26 -28 65 -17 l40 12 -19 22
c-11 12 -59 69 -108 127 -48 58 -93 110 -99 116 -8 9 -21 7 -52 -6z m70 -120
c21 -28 37 -52 35 -54 -12 -11 -50 -26 -63 -26 -13 0 -16 13 -16 65 0 36 1 65
3 65 2 0 20 -23 41 -50z"/>
<path d="M1524 860 c-46 -18 -68 -85 -44 -130 5 -10 32 -35 60 -55 38 -28 50
-43 48 -59 -4 -30 -67 -34 -112 -7 l-34 21 -6 -22 c-10 -40 -7 -45 34 -62 47
-19 138 -21 161 -3 22 17 39 51 39 79 -1 35 -20 63 -73 103 -35 27 -47 43 -45
58 4 29 55 34 98 12 37 -19 37 -19 42 19 3 25 -2 30 -32 42 -40 14 -105 17
-136 4z"/>
<path d="M2037 853 c-2 -5 0 -55 5 -113 6 -73 5 -112 -3 -131 -17 -43 -87 -50
-108 -11 -5 10 -12 56 -16 102 -11 149 -10 147 -51 142 l-35 -4 6 -97 c12
-179 36 -221 127 -229 101 -8 158 42 158 140 0 23 -3 80 -7 126 l-6 82 -33 0
c-18 0 -35 -3 -37 -7z"/>
</g>
</svg>
